<?xml version="1.0" standalone="no"?>
<!DOCTYPE svg PUBLIC "-//W3C//DTD SVG 20010904//EN"
 "http://www.w3.org/TR/2001/REC-SVG-20010904/DTD/svg10.dtd">
<svg version="1.0" xmlns="http://www.w3.org/2000/svg"
 width="200.000000pt" height="200.000000pt" viewBox="0 0 200.000000 200.000000"
 preserveAspectRatio="xMidYMid meet">

<g transform="translate(0.000000,200.000000) scale(0.100000,-0.100000)"
fill="#fff" stroke="none">
<path d="M377 1513 c-11 -11 -8 -48 5 -61 9 -9 160 -12 619 -12 655 0 635 -2
627 52 l-3 23 -621 3 c-341 1 -624 -1 -627 -5z"/>
<path d="M382 1028 c-16 -16 -15 -43 2 -57 9 -8 128 -10 421 -9 376 3 409 4
419 21 8 12 8 22 0 35 -10 16 -43 17 -420 20 -310 2 -413 -1 -422 -10z"/>
<path d="M380 546 c-6 -8 -10 -25 -8 -38 l3 -23 625 0 625 0 3 23 c8 54 28 52
-628 52 -518 0 -609 -2 -620 -14z"/>
</g>
</svg>
