<?xml version="1.0" standalone="no"?>
<!DOCTYPE svg PUBLIC "-//W3C//DTD SVG 20010904//EN"
 "http://www.w3.org/TR/2001/REC-SVG-20010904/DTD/svg10.dtd">
<svg version="1.0" xmlns="http://www.w3.org/2000/svg"
 width="512.000000pt" height="512.000000pt" viewBox="0 0 512.000000 512.000000"
 preserveAspectRatio="xMidYMid meet">

<g transform="translate(0.000000,512.000000) scale(0.100000,-0.100000)"
fill="#000000" stroke="none">
<path d="M1239 3881 c-20 -21 -29 -39 -29 -63 0 -30 49 -82 612 -645 l613
-613 -613 -613 c-563 -563 -612 -615 -612 -645 0 -46 46 -92 92 -92 30 0 82
49 645 612 l613 613 613 -613 c563 -563 615 -612 645 -612 46 0 92 46 92 92 0
30 -49 82 -612 645 l-613 613 613 613 c563 563 612 615 612 645 0 46 -46 92
-92 92 -30 0 -82 -49 -645 -612 l-613 -613 -613 613 c-563 563 -615 612 -645
612 -24 0 -42 -9 -63 -29z"/>
</g>
</svg>
